<svg width="16" height="16" viewBox="0 0 16 16" fill="none" xmlns="http://www.w3.org/2000/svg">
<path d="M8 0C7.44 0 7 0.44 7 1C7 1.56 7.44 2 8 2C8.56 2 9 1.56 9 1C9 0.44 8.56 0 8 0ZM3 2C2.44 2 2 2.44 2 3C2 3.56 2.44 4 3 4C3.56 4 4 3.56 4 3C4 2.44 3.56 2 3 2ZM13 2C12.44 2 12 2.44 12 3C12 3.56 12.44 4 13 4C13.56 4 14 3.56 14 3C14 2.44 13.56 2 13 2ZM8 4C5.8 4 4 5.8 4 8C4 10.2 5.8 12 8 12C10.2 12 12 10.2 12 8C12 5.8 10.2 4 8 4ZM1 7C0.44 7 0 7.44 0 8C0 8.56 0.44 9 1 9C1.56 9 2 8.56 2 8C2 7.44 1.56 7 1 7ZM15 7C14.44 7 14 7.44 14 8C14 8.56 14.44 9 15 9C15.56 9 16 8.56 16 8C16 7.44 15.56 7 15 7ZM3 12C2.44 12 2 12.44 2 13C2 13.56 2.44 14 3 14C3.56 14 4 13.56 4 13C4 12.44 3.56 12 3 12ZM13 12C12.44 12 12 12.44 12 13C12 13.56 12.44 14 13 14C13.56 14 14 13.56 14 13C14 12.44 13.56 12 13 12ZM8 14C7.44 14 7 14.44 7 15C7 15.56 7.44 16 8 16C8.56 16 9 15.56 9 15C9 14.44 8.56 14 8 14Z" fill="currentColor"/>
</svg>
